<svg width="44" height="45" viewBox="0 0 44 45" fill="none" xmlns="http://www.w3.org/2000/svg">
<rect width="44" height="45" rx="5" fill="black"/>
<g clip-path="url(#clip0_2940_502)">
<path d="M22.3927 9.87772C26.4864 9.87772 26.9712 9.89576 28.5811 9.96793C30.0774 10.0341 30.8853 10.2866 31.424 10.4971C32.1362 10.7737 32.6509 11.1105 33.1836 11.6457C33.7222 12.1869 34.0514 12.6981 34.3267 13.4137C34.5361 13.9549 34.7875 14.7728 34.8534 16.2701C34.9252 17.8938 34.9431 18.3809 34.9431 22.4882C34.9431 26.6015 34.9252 27.0886 34.8534 28.7062C34.7875 30.2096 34.5361 31.0214 34.3267 31.5627C34.0514 32.2783 33.7162 32.7954 33.1836 33.3306C32.6449 33.8719 32.1362 34.2026 31.424 34.4792C30.8853 34.6897 30.0714 34.9423 28.5811 35.0084C26.9652 35.0806 26.4804 35.0986 22.3927 35.0986C18.299 35.0986 17.8142 35.0806 16.2043 35.0084C14.7081 34.9423 13.9001 34.6897 13.3615 34.4792C12.6492 34.2026 12.1345 33.8659 11.6019 33.3306C11.0632 32.7894 10.7341 32.2783 10.4588 31.5627C10.2493 31.0214 9.99792 30.2036 9.93209 28.7062C9.86027 27.0825 9.84231 26.5954 9.84231 22.4882C9.84231 18.3749 9.86027 17.8878 9.93209 16.2701C9.99792 14.7668 10.2493 13.9549 10.4588 13.4137C10.7341 12.6981 11.0692 12.1809 11.6019 11.6457C12.1405 11.1045 12.6492 10.7737 13.3615 10.4971C13.9001 10.2866 14.714 10.0341 16.2043 9.96793C17.8142 9.89576 18.299 9.87772 22.3927 9.87772ZM22.3927 7.10547C18.2332 7.10547 17.7125 7.12351 16.0786 7.19567C14.4507 7.26784 13.3315 7.53243 12.362 7.91129C11.3505 8.30818 10.4947 8.83136 9.64481 9.6913C8.78897 10.5452 8.26828 11.4052 7.87327 12.4155C7.49622 13.3957 7.23288 14.5142 7.16106 16.1499C7.08924 17.7976 7.07129 18.3208 7.07129 22.5002C7.07129 26.6796 7.08924 27.2028 7.16106 28.8445C7.23288 30.4802 7.49622 31.6048 7.87327 32.579C8.26828 33.5952 8.78897 34.4552 9.64481 35.3091C10.4947 36.163 11.3505 36.6922 12.356 37.0831C13.3315 37.462 14.4447 37.7266 16.0726 37.7987C17.7065 37.8709 18.2272 37.8889 22.3867 37.8889C26.5463 37.8889 27.067 37.8709 28.7008 37.7987C30.3287 37.7266 31.4479 37.462 32.4175 37.0831C33.423 36.6922 34.2788 36.163 35.1287 35.3091C35.9785 34.4552 36.5052 33.5952 36.8942 32.585C37.2713 31.6048 37.5346 30.4862 37.6064 28.8505C37.6782 27.2088 37.6962 26.6857 37.6962 22.5062C37.6962 18.3268 37.6782 17.8036 37.6064 16.1619C37.5346 14.5262 37.2713 13.4017 36.8942 12.4275C36.5172 11.4052 35.9965 10.5452 35.1406 9.6913C34.2908 8.83738 33.4349 8.30818 32.4295 7.9173C31.4539 7.53845 30.3407 7.27385 28.7128 7.20169C27.0729 7.12351 26.5522 7.10547 22.3927 7.10547Z" fill="white"/>
<path d="M22.3926 14.5923C18.0476 14.5923 14.5225 18.1343 14.5225 22.5001C14.5225 26.866 18.0476 30.408 22.3926 30.408C26.7377 30.408 30.2628 26.866 30.2628 22.5001C30.2628 18.1343 26.7377 14.5923 22.3926 14.5923ZM22.3926 27.6297C19.5737 27.6297 17.2875 25.3325 17.2875 22.5001C17.2875 19.6677 19.5737 17.3706 22.3926 17.3706C25.2116 17.3706 27.4978 19.6677 27.4978 22.5001C27.4978 25.3325 25.2116 27.6297 22.3926 27.6297Z" fill="white"/>
<path d="M32.4111 14.2798C32.4111 15.3021 31.5852 16.1259 30.5737 16.1259C29.5563 16.1259 28.7363 15.2961 28.7363 14.2798C28.7363 13.2575 29.5622 12.4336 30.5737 12.4336C31.5852 12.4336 32.4111 13.2635 32.4111 14.2798Z" fill="white"/>
</g>
<defs>
<clipPath id="clip0_2940_502">
<rect width="30.6429" height="30.7895" fill="white" transform="translate(7.07129 7.10547)"/>
</clipPath>
</defs>
</svg>
