<svg width="48" height="46" viewBox="0 0 48 46" fill="none" xmlns="http://www.w3.org/2000/svg">
<path d="M48 22.9565C48.0244 35.6288 37.2406 45.9911 24.0174 46C18.3063 46.0039 13.0603 44.096 8.93786 40.9074C7.8659 40.0783 7.78577 38.5387 8.7599 37.6052L9.85025 36.5602C10.6834 35.7618 12.0134 35.6745 12.9365 36.3762C15.9737 38.686 19.8175 40.0646 24 40.0646C33.8424 40.0646 41.8064 32.4309 41.8064 23C41.8064 13.5677 33.8408 5.9355 24 5.9355C19.276 5.9355 14.9856 7.69472 11.7999 10.5663L16.7115 15.2733C17.687 16.2082 16.9961 17.8065 15.6167 17.8065H1.54839C0.693193 17.8065 0 17.1422 0 16.3226V2.84041C0 1.51847 1.6678 0.856381 2.64329 1.79113L7.42122 6.36999C11.7299 2.42391 17.5695 0 24 0C37.2396 0 47.9755 10.274 48 22.9565ZM30.4924 30.2631L31.443 29.0918C32.2305 28.1214 32.0481 26.723 31.0356 25.9683L27.0968 23.0324V13.3549C27.0968 12.1256 26.0569 11.1291 24.7742 11.1291H23.2258C21.943 11.1291 20.9032 12.1256 20.9032 13.3549V25.9354L27.2331 30.6536C28.2457 31.4082 29.7048 31.2335 30.4924 30.2631Z" fill="#949494"/>
</svg>
