<svg width="47" height="39" viewBox="0 0 47 39" fill="none" xmlns="http://www.w3.org/2000/svg">
<path d="M22.8769 10.1176L7.83395 23.3382V37.607C7.83395 37.9764 7.97149 38.3308 8.21631 38.592C8.46113 38.8532 8.79318 39 9.13941 39L18.2825 38.9747C18.6276 38.9729 18.958 38.8253 19.2014 38.5643C19.4448 38.3033 19.5814 37.95 19.5814 37.5817V29.2489C19.5814 28.8795 19.719 28.5251 19.9638 28.2639C20.2086 28.0027 20.5406 27.8559 20.8869 27.8559H26.1087C26.4549 27.8559 26.787 28.0027 27.0318 28.2639C27.2766 28.5251 27.4141 28.8795 27.4141 29.2489V37.5756C27.4136 37.7589 27.447 37.9406 27.5123 38.1101C27.5777 38.2796 27.6738 38.4337 27.7951 38.5635C27.9163 38.6933 28.0604 38.7963 28.2191 38.8666C28.3777 38.9368 28.5478 38.973 28.7196 38.973L37.8594 39C38.2056 39 38.5377 38.8532 38.7825 38.592C39.0273 38.3308 39.1649 37.9764 39.1649 37.607V23.3286L24.1252 10.1176C23.9484 9.96555 23.7281 9.88262 23.501 9.88262C23.2739 9.88262 23.0537 9.96555 22.8769 10.1176ZM46.6386 19.1034L39.8176 13.1039V1.04476C39.8176 0.767672 39.7144 0.501934 39.5308 0.306003C39.3472 0.110073 39.0982 0 38.8385 0H34.2694C34.0097 0 33.7607 0.110073 33.5771 0.306003C33.3935 0.501934 33.2903 0.767672 33.2903 1.04476V7.36642L25.9855 0.953343C25.2845 0.337787 24.4048 0.0012305 23.497 0.0012305C22.5891 0.0012305 21.7095 0.337787 21.0084 0.953343L0.355327 19.1034C0.256184 19.1909 0.174159 19.2983 0.113938 19.4196C0.0537177 19.5409 0.016482 19.6736 0.00435871 19.8102C-0.00776456 19.9469 0.00546224 20.0847 0.0432834 20.2159C0.0811045 20.3471 0.142779 20.4691 0.224782 20.5748L2.30535 23.2738C2.38713 23.3799 2.48772 23.4677 2.60136 23.5323C2.715 23.5969 2.83946 23.6369 2.96762 23.6501C3.09577 23.6633 3.22511 23.6493 3.34821 23.6091C3.47132 23.5689 3.58579 23.5032 3.68505 23.4157L22.8769 6.54803C23.0537 6.39595 23.2739 6.31302 23.501 6.31302C23.7281 6.31302 23.9484 6.39595 24.1252 6.54803L43.3179 23.4157C43.4169 23.5032 43.5312 23.569 43.6542 23.6093C43.7771 23.6497 43.9063 23.6638 44.0343 23.6509C44.1624 23.6379 44.2868 23.5982 44.4005 23.5339C44.5141 23.4697 44.6148 23.3822 44.6967 23.2764L46.7773 20.5774C46.8592 20.4711 46.9206 20.3485 46.958 20.2167C46.9954 20.085 47.008 19.9466 46.9951 19.8096C46.9822 19.6727 46.9441 19.5398 46.8829 19.4186C46.8217 19.2974 46.7387 19.1903 46.6386 19.1034Z" fill="#C3604D"/>
</svg>
