<svg width="40" height="33" viewBox="0 0 40 33" fill="none" xmlns="http://www.w3.org/2000/svg">
<path d="M39.4464 17.9598L26.1124 32.3949C24.9219 33.6837 22.8583 32.7815 22.8583 30.9342V22.6856H12.0641C11.0085 22.6856 10.1592 21.7662 10.1592 20.6234V12.3748C10.1592 11.232 11.0085 10.3126 12.0641 10.3126H22.8583V2.06398C22.8583 0.225228 24.9139 -0.685558 26.1124 0.60329L39.4464 15.0384C40.1845 15.8461 40.1845 17.1521 39.4464 17.9598ZM15.2389 31.9653V28.5283C15.2389 27.9612 14.8103 27.4973 14.2864 27.4973H7.61943C6.21459 27.4973 5.07962 26.2686 5.07962 24.7477V8.25046C5.07962 6.72962 6.21459 5.50091 7.61943 5.50091H14.2864C14.8103 5.50091 15.2389 5.03693 15.2389 4.46984V1.03291C15.2389 0.465813 14.8103 0.00182746 14.2864 0.00182746H7.61943C3.41287 0.00182746 0 3.69653 0 8.25046V24.7477C0 29.3016 3.41287 32.9963 7.61943 32.9963H14.2864C14.8103 32.9963 15.2389 32.5324 15.2389 31.9653Z" fill="#949494"/>
</svg>
