<svg width="48" height="46" viewBox="0 0 48 46" fill="none" xmlns="http://www.w3.org/2000/svg">
<path d="M24.0532 0C10.5019 0 0 9.4917 0 22.3121C0 29.0177 2.87516 34.8125 7.55516 38.8154C8.36323 39.5119 8.19677 39.9154 8.33419 44.216C8.34501 44.5173 8.43258 44.8114 8.58924 45.0728C8.74591 45.3341 8.96692 45.5548 9.233 45.7155C9.49908 45.8762 9.80215 45.9721 10.1158 45.9948C10.4294 46.0174 10.744 45.9662 11.0323 45.8456C16.1526 43.6846 16.2184 43.514 17.0865 43.7403C31.921 47.6532 48 38.5548 48 22.3121C48 9.4917 37.6055 0 24.0532 0ZM38.4958 17.1702L31.4313 27.8889C31.1645 28.292 30.8138 28.6379 30.401 28.905C29.9882 29.172 29.5223 29.3545 29.0325 29.441C28.5427 29.5274 28.0396 29.516 27.5546 29.4074C27.0696 29.2988 26.6133 29.0954 26.2142 28.8099L20.5935 24.7782C20.3423 24.5976 20.0367 24.5 19.7226 24.5C19.4085 24.5 19.1029 24.5976 18.8516 24.7782L11.2674 30.2911C10.2552 31.0265 8.92935 29.8644 9.61161 28.8377L16.6761 18.119C16.9428 17.7158 17.2935 17.3698 17.7063 17.1027C18.1191 16.8355 18.585 16.653 19.0748 16.5665C19.5646 16.48 20.0678 16.4915 20.5528 16.6002C21.0378 16.7088 21.4942 16.9124 21.8932 17.198L27.5119 21.2288C27.7632 21.4094 28.0688 21.507 28.3829 21.507C28.697 21.507 29.0026 21.4094 29.2539 21.2288L36.8419 15.7215C37.8523 14.9814 39.1781 16.1426 38.4958 17.1702Z" fill="#C3604D"/>
</svg>
