<svg width="41" height="41" viewBox="0 0 41 41" fill="none" xmlns="http://www.w3.org/2000/svg">
<path d="M26.3571 10.8906V0H8.05357C6.83638 0 5.85714 0.856836 5.85714 1.92188V20.5H0.732143C0.329464 20.5 0 20.7883 0 21.1406V22.4219C0 22.7742 0.329464 23.0625 0.732143 23.0625H13.627C13.9016 23.0625 14.1578 23.1986 14.2859 23.4148L16.1071 26.602L21.3054 17.4971C21.5708 17.0246 22.3487 17.0246 22.6141 17.4971L25.7897 23.0625H32.2143C33.0196 23.0625 33.6786 23.6391 33.6786 24.3438C33.6786 25.0484 33.0196 25.625 32.2143 25.625H23.9868L21.9643 22.0855L16.7661 31.1904C16.5007 31.6629 15.7228 31.6629 15.4574 31.1904L12.2725 25.625H5.85714V39.0781C5.85714 40.1432 6.83638 41 8.05357 41H38.8036C40.0208 41 41 40.1432 41 39.0781V12.8125H28.5536C27.3455 12.8125 26.3571 11.9477 26.3571 10.8906ZM40.3594 8.4082L31.3998 0.560547C30.9879 0.200195 30.4297 0 29.844 0H29.2857V10.25H41V9.76152C41 9.25703 40.7712 8.76855 40.3594 8.4082Z" fill="#C3604D"/>
</svg>
