<svg width="38" height="31" viewBox="0 0 38 31" fill="none" xmlns="http://www.w3.org/2000/svg">
<path d="M37.4832 26.8015L30.0831 20.7656C29.7491 20.4931 29.2963 20.3418 28.8212 20.3418H27.6114C29.66 18.2047 30.8773 15.5166 30.8773 12.5925C30.8773 5.63636 23.967 0 15.4386 0C6.91027 0 0 5.63636 0 12.5925C0 19.5487 6.91027 25.185 15.4386 25.185C19.0237 25.185 22.3192 24.1922 24.9393 22.5212V23.5081C24.9393 23.8955 25.1249 24.2648 25.4589 24.5373L32.859 30.5732C33.5568 31.1423 34.685 31.1423 35.3752 30.5732L37.4758 28.8599C38.1735 28.2908 38.1735 27.3706 37.4832 26.8015ZM15.4386 20.3418C10.191 20.3418 5.93793 16.8788 5.93793 12.5925C5.93793 8.31227 10.1836 4.84328 15.4386 4.84328C20.6863 4.84328 24.9393 8.30622 24.9393 12.5925C24.9393 16.8728 20.6937 20.3418 15.4386 20.3418Z" fill="black" fill-opacity="0.36"/>
</svg>
