<svg width="31" height="31" viewBox="0 0 31 31" fill="none" xmlns="http://www.w3.org/2000/svg">
<g clip-path="url(#clip0_2940_522)">
<path d="M28.4459 0.105469H2.33359C1.08274 0.105469 0.0712891 1.09771 0.0712891 2.32448V28.6699C0.0712891 29.8967 1.08274 30.8949 2.33359 30.8949H28.4459C29.6967 30.8949 30.7141 29.8967 30.7141 28.6759V2.32448C30.7141 1.09771 29.6967 0.105469 28.4459 0.105469ZM9.1624 26.3427H4.61385V11.6455H9.1624V26.3427ZM6.88813 9.64299C5.4278 9.64299 4.24877 8.45832 4.24877 6.99702C4.24877 5.53572 5.4278 4.35105 6.88813 4.35105C8.34247 4.35105 9.5215 5.53572 9.5215 6.99702C9.5215 8.4523 8.34247 9.64299 6.88813 9.64299ZM26.1836 26.3427H21.641V19.1986C21.641 17.4967 21.6111 15.3018 19.2769 15.3018C16.9129 15.3018 16.5538 17.16 16.5538 19.0783V26.3427H12.0172V11.6455H16.3742V13.654H16.4341C17.0386 12.4994 18.5228 11.2787 20.7313 11.2787C25.3337 11.2787 26.1836 14.3215 26.1836 18.2785V26.3427V26.3427Z" fill="white"/>
</g>
<defs>
<clipPath id="clip0_2940_522">
<rect width="30.6429" height="30.7895" fill="white" transform="translate(0.0712891 0.105469)"/>
</clipPath>
</defs>
</svg>
