<svg width="31" height="31" viewBox="0 0 31 31" fill="none" xmlns="http://www.w3.org/2000/svg">
<g clip-path="url(#clip0_2940_511)">
<path d="M15.3927 0.105469C6.931 0.105469 0.0712891 6.998 0.0712891 15.5002C0.0712891 22.7197 5.01827 28.7779 11.6917 30.4417V20.2048H8.5324V15.5002H11.6917V13.473C11.6917 8.23327 14.0518 5.8046 19.1716 5.8046C20.1424 5.8046 21.8173 5.99611 22.5025 6.18701V10.4513C22.1409 10.4132 21.5127 10.3941 20.7325 10.3941C18.2204 10.3941 17.2497 11.3504 17.2497 13.8363V15.5002H22.2543L21.3944 20.2048H17.2497V30.7823C24.8362 29.8617 30.7148 23.3712 30.7148 15.5002C30.7141 6.998 23.8544 0.105469 15.3927 0.105469Z" fill="white"/>
</g>
<defs>
<clipPath id="clip0_2940_511">
<rect width="30.6429" height="30.7895" fill="white" transform="translate(0.0712891 0.105469)"/>
</clipPath>
</defs>
</svg>
