<svg width="35" height="25" viewBox="0 0 35 25" fill="none" xmlns="http://www.w3.org/2000/svg">
<path d="M34.125 10.1562H23.625C23.1437 10.1562 22.75 10.5078 22.75 10.9375V12.5C22.75 12.9297 23.1437 13.2812 23.625 13.2812H34.125C34.6063 13.2812 35 12.9297 35 12.5V10.9375C35 10.5078 34.6063 10.1562 34.125 10.1562ZM12.25 12.5C16.1164 12.5 19.25 9.70215 19.25 6.25C19.25 2.79785 16.1164 0 12.25 0C8.38359 0 5.25 2.79785 5.25 6.25C5.25 9.70215 8.38359 12.5 12.25 12.5ZM17.15 14.0625H16.2367C15.0227 14.5605 13.6719 14.8438 12.25 14.8438C10.8281 14.8438 9.48281 14.5605 8.26328 14.0625H7.35C3.29219 14.0625 0 17.002 0 20.625V22.6562C0 23.9502 1.17578 25 2.625 25H21.875C23.3242 25 24.5 23.9502 24.5 22.6562V20.625C24.5 17.002 21.2078 14.0625 17.15 14.0625Z" fill="#C3604D"/>
</svg>
