<svg width="35" height="25" viewBox="0 0 35 25" fill="none" xmlns="http://www.w3.org/2000/svg">
<path d="M12.2505 12.4997C16.117 12.4997 19.2508 9.70192 19.2508 6.24985C19.2508 2.79779 16.117 0 12.2505 0C8.38392 0 5.25021 2.79779 5.25021 6.24985C5.25021 9.70192 8.38392 12.4997 12.2505 12.4997ZM17.1507 14.0622H16.2374C15.0232 14.5602 13.6724 14.8434 12.2505 14.8434C10.8285 14.8434 9.48318 14.5602 8.2636 14.0622H7.35029C3.29232 14.0622 0 17.0015 0 20.6245V22.6557C0 23.9496 1.17583 24.9994 2.6251 24.9994H17.6593C17.528 24.6674 17.4733 24.3158 17.5171 23.9594L17.889 20.9858L17.9546 20.4439L18.3867 20.0581L22.6142 16.2838C21.2743 14.9313 19.3328 14.0622 17.1507 14.0622ZM19.6281 21.1567L19.2562 24.1352C19.1961 24.6332 19.6664 25.0531 20.2188 24.9945L23.5494 24.6625L31.0911 17.9293L27.1698 14.4284L19.6281 21.1567ZM34.6185 13.1296L32.5458 11.279C32.0372 10.8249 31.2059 10.8249 30.6973 11.279L28.63 13.1247L28.4058 13.3249L32.3325 16.8258L34.6185 14.7848C35.1272 14.3258 35.1272 13.5885 34.6185 13.1296Z" fill="#C3604D"/>
</svg>
